<svg width="950" height="310" viewBox="0 0 950 310" fill="none" xmlns="http://www.w3.org/2000/svg">
<path d="M113.09 17L112.46 15.02H107.78L107.15 17H104L108.284 4.4H111.956L116.24 17H113.09ZM108.644 12.32H111.596L110.12 7.694L108.644 12.32ZM140.654 4.4H143.534V17H140.654V11.996H136.694V17H133.814V4.4H136.694V9.224H140.654V4.4ZM151.697 4.4H154.577V17H151.697V4.4ZM172.93 17H169.654L165.622 11.168V17H162.742V4.4H165.622V9.872L169.474 4.4H172.75L168.502 10.538L172.93 17ZM180.01 4.4H182.89V17H180.01V4.4ZM198.075 4.4H200.955V17H198.795L193.935 10.16V17H191.055V4.4H193.215L198.075 11.24V4.4ZM221.587 9.98V11.06C221.587 12.944 220.999 14.45 219.823 15.578C218.659 16.694 217.177 17.252 215.377 17.252C213.421 17.252 211.795 16.622 210.499 15.362C209.215 14.102 208.573 12.554 208.573 10.718C208.573 8.882 209.209 7.328 210.481 6.056C211.765 4.784 213.331 4.148 215.179 4.148C216.355 4.148 217.429 4.412 218.401 4.94C219.385 5.468 220.147 6.164 220.687 7.028L218.239 8.432C217.963 8 217.549 7.646 216.997 7.37C216.457 7.094 215.845 6.956 215.161 6.956C214.093 6.956 213.205 7.31 212.497 8.018C211.801 8.726 211.453 9.632 211.453 10.736C211.453 11.828 211.813 12.722 212.533 13.418C213.253 14.102 214.213 14.444 215.413 14.444C217.081 14.444 218.155 13.796 218.635 12.5H215.269V9.98H221.587ZM252.185 9.98V11.06C252.185 12.944 251.597 14.45 250.421 15.578C249.257 16.694 247.775 17.252 245.975 17.252C244.019 17.252 242.393 16.622 241.097 15.362C239.813 14.102 239.171 12.554 239.171 10.718C239.171 8.882 239.807 7.328 241.079 6.056C242.363 4.784 243.929 4.148 245.777 4.148C246.953 4.148 248.027 4.412 248.999 4.94C249.983 5.468 250.745 6.164 251.285 7.028L248.837 8.432C248.561 8 248.147 7.646 247.595 7.37C247.055 7.094 246.443 6.956 245.759 6.956C244.691 6.956 243.803 7.31 243.095 8.018C242.399 8.726 242.051 9.632 242.051 10.736C242.051 11.828 242.411 12.722 243.131 13.418C243.851 14.102 244.811 14.444 246.011 14.444C247.679 14.444 248.753 13.796 249.233 12.5H245.867V9.98H252.185ZM267.983 16.082C267.071 16.862 265.907 17.252 264.491 17.252C263.075 17.252 261.911 16.862 260.999 16.082C260.087 15.302 259.631 14.252 259.631 12.932V4.4H262.511V12.68C262.511 13.856 263.171 14.444 264.491 14.444C265.811 14.444 266.471 13.856 266.471 12.68V4.4H269.351V12.932C269.351 14.252 268.895 15.302 267.983 16.082ZM277.428 4.4H280.308V17H277.428V4.4ZM293.513 4.4C295.253 4.4 296.705 5.006 297.869 6.218C299.045 7.418 299.633 8.912 299.633 10.7C299.633 12.488 299.045 13.988 297.869 15.2C296.705 16.4 295.253 17 293.513 17H288.473V4.4H293.513ZM293.513 14.228C294.509 14.228 295.313 13.91 295.925 13.274C296.549 12.626 296.861 11.768 296.861 10.7C296.861 9.632 296.549 8.78 295.925 8.144C295.313 7.496 294.509 7.172 293.513 7.172H291.353V14.228H293.513ZM310.132 14.228H315.172V17H307.252V4.4H315.082V7.172H310.132V9.26H314.632V11.996H310.132V14.228Z" fill="#FBD784"/>
<rect y="10" width="72" height="2" fill="#FBD784"/>
<path d="M2.904 130H31.328C50.6 130 56.848 121.2 56.848 112.576C56.848 103.864 50.16 98.232 36.608 97.704V97.352C49.544 96.208 54.384 89.872 54.384 83.36C54.384 75.792 48.84 68.664 30.536 68.664H2.904V69.72C10.56 69.984 12.496 72.008 12.496 75.528V123.048C12.496 126.656 10.56 128.592 2.904 128.856V130ZM22.792 96.824V70.336H30.272C41.096 70.336 43.648 76.144 43.648 83.624C43.648 91.896 40.48 96.824 30.624 96.824H22.792ZM22.792 128.328V98.496H30.888C41.8 98.496 45.848 104.744 45.848 112.752C45.848 123.224 42.944 128.328 31.68 128.328H22.792ZM83.2899 130.704C92.0899 130.704 97.1059 126.128 100.626 120.408L99.6579 119.704C96.0499 124.368 92.7939 127.184 87.2499 127.184C78.0099 127.184 73.4339 119.88 73.4339 109.672V109.496V107.472H100.45C101.154 97 95.0819 88.728 83.2899 88.728C72.5539 88.728 63.4019 97.616 63.4019 110.2C63.4019 122.344 71.4979 130.704 83.2899 130.704ZM82.6739 90.4C89.2739 90.4 91.4739 96.208 90.5939 105.888H73.5219C74.1379 95.768 77.3939 90.4 82.6739 90.4ZM122.529 130H152.625V128.856C144.265 128.592 142.417 126.832 142.417 123.048V102.984H148.225C167.761 102.984 174.097 94.536 174.097 85.56C174.097 75.968 168.025 68.664 148.665 68.664H122.529V69.72C130.185 69.984 132.121 72.008 132.121 75.528V123.048C132.121 126.656 130.185 128.592 122.529 128.856V130ZM142.417 101.312V70.336H148.665C160.105 70.336 162.921 76.672 162.921 85.472C162.921 95.504 160.369 101.312 148.313 101.312H142.417ZM178.707 130H201.851V128.944C195.867 128.768 194.195 128.24 194.195 125.6V100.168C196.747 95.856 199.123 93.304 202.555 92.864C202.291 93.568 202.027 94.712 202.027 95.592C202.027 98.76 204.315 101.048 207.571 101.048C210.739 101.048 212.939 98.672 212.939 95.328C212.939 91.896 210.739 88.904 205.899 88.904C201.411 88.904 197.099 92.424 194.019 98.144V89.256L178.707 89.872V90.928C183.723 91.016 184.955 92.688 184.955 95.328V125.6C184.955 128.24 183.723 128.856 178.707 128.944V130ZM235.571 130.704C244.371 130.704 249.387 126.128 252.907 120.408L251.939 119.704C248.331 124.368 245.075 127.184 239.531 127.184C230.291 127.184 225.715 119.88 225.715 109.672V109.496V107.472H252.731C253.435 97 247.363 88.728 235.571 88.728C224.835 88.728 215.683 97.616 215.683 110.2C215.683 122.344 223.779 130.704 235.571 130.704ZM234.955 90.4C241.555 90.4 243.755 96.208 242.875 105.888H225.803C226.419 95.768 229.675 90.4 234.955 90.4ZM255.932 146.808H279.78V145.752C273.092 145.664 271.42 145.136 271.42 142.408V128.152C274.588 129.824 277.58 130.704 281.98 130.704C293.508 130.704 300.636 121.288 300.636 109.144C300.636 97.352 294.828 88.728 284.62 88.728C279.252 88.728 274.94 91.368 271.244 95.064V89.256L255.932 89.872V90.928C260.948 91.016 262.18 92.688 262.18 95.328V142.408C262.18 145.136 261.036 145.664 255.932 145.752V146.808ZM280.484 129.032C276.524 129.032 273.268 127.184 271.42 122.344V96.736C274.148 93.92 276.876 92.336 280.22 92.336C287.172 92.336 290.692 100.168 290.692 109.672C290.692 122.344 287.26 129.032 280.484 129.032ZM318.315 130.528C323.771 130.528 327.907 127.448 331.251 123.576H331.603C332.131 128.328 333.979 130.352 338.907 130.352C341.987 130.352 344.275 129.296 347.355 127.36L347.003 126.48C341.899 128.592 340.315 126.744 340.315 122.432V101.928C340.315 92.864 335.035 88.992 325.091 88.992C315.147 88.992 308.723 92.776 308.723 97.968C308.723 100.872 310.747 103.16 313.827 103.16C317.259 103.16 319.107 101.048 319.107 97.968C319.107 96.208 318.227 94.624 316.731 93.216C318.315 91.632 321.043 90.664 324.035 90.664C329.227 90.664 331.163 93.832 331.163 100.432V106.768C329.139 107.736 318.843 108.264 312.331 111.872C308.635 113.896 307.051 117.328 307.051 120.76C307.051 125.688 310.483 130.528 318.315 130.528ZM323.419 126.48C318.931 126.48 316.907 123.488 316.907 119.264C316.907 113.28 319.459 110.728 331.163 108.44V121.552C329.403 124.016 326.587 126.48 323.419 126.48ZM348.606 130H371.75V128.944C365.766 128.768 364.094 128.24 364.094 125.6V100.168C366.646 95.856 369.022 93.304 372.454 92.864C372.19 93.568 371.926 94.712 371.926 95.592C371.926 98.76 374.214 101.048 377.47 101.048C380.638 101.048 382.838 98.672 382.838 95.328C382.838 91.896 380.638 88.904 375.798 88.904C371.31 88.904 366.998 92.424 363.918 98.144V89.256L348.606 89.872V90.928C353.622 91.016 354.854 92.688 354.854 95.328V125.6C354.854 128.24 353.622 128.856 348.606 128.944V130ZM405.47 130.704C414.27 130.704 419.286 126.128 422.806 120.408L421.838 119.704C418.23 124.368 414.974 127.184 409.43 127.184C400.19 127.184 395.614 119.88 395.614 109.672V109.496V107.472H422.63C423.334 97 417.262 88.728 405.47 88.728C394.734 88.728 385.582 97.616 385.582 110.2C385.582 122.344 393.678 130.704 405.47 130.704ZM404.854 90.4C411.454 90.4 413.654 96.208 412.774 105.888H395.702C396.318 95.768 399.574 90.4 404.854 90.4ZM445.631 130.704C450.735 130.704 454.695 128.504 457.599 125.512V130.352L472.999 130V129.12C467.983 129.032 466.663 127.712 466.663 125.512V66.904L450.383 67.432V68.488C456.543 68.664 457.423 69.984 457.423 72.976V90.84C455.047 89.608 452.671 88.728 448.447 88.728C436.391 88.728 428.207 98.232 428.207 110.288C428.207 121.816 434.719 130.704 445.631 130.704ZM449.943 127.008C442.287 127.008 438.239 119.528 438.239 109.848C438.239 98.144 442.287 90.4 448.975 90.4C453.023 90.4 455.487 92.16 457.423 94.888V123.664C455.575 125.688 453.375 127.008 449.943 127.008ZM492.662 130H522.318V128.856C514.398 128.592 512.55 126.744 512.55 123.048V99.904H517.302C524.606 99.904 528.302 102.544 530.678 111.872H531.822V86.264H530.678C528.302 95.592 524.606 98.144 517.302 98.144H512.55V70.336H522.23C533.142 70.336 537.63 75.88 542.998 88.992L544.142 88.904L543.438 68.664H492.662V69.808C500.318 70.072 502.254 72.008 502.254 75.528V123.048C502.254 126.656 500.318 128.592 492.662 128.856V130ZM564.213 130.704C575.389 130.704 584.717 122.08 584.717 109.496C584.717 97 575.829 88.728 564.213 88.728C552.949 88.728 543.621 97.352 543.621 109.848C543.621 122.432 552.421 130.704 564.213 130.704ZM564.565 129.032C557.877 129.032 553.829 123.4 553.829 109.672C553.829 95.944 557.173 90.4 563.773 90.4C570.461 90.4 574.421 95.944 574.421 109.672C574.421 123.4 571.077 129.032 564.565 129.032ZM589.403 130H612.547V128.944C606.563 128.768 604.891 128.24 604.891 125.6V100.168C607.443 95.856 609.819 93.304 613.251 92.864C612.987 93.568 612.723 94.712 612.723 95.592C612.723 98.76 615.011 101.048 618.267 101.048C621.435 101.048 623.635 98.672 623.635 95.328C623.635 91.896 621.435 88.904 616.595 88.904C612.107 88.904 607.795 92.424 604.715 98.144V89.256L589.403 89.872V90.928C594.419 91.016 595.651 92.688 595.651 95.328V125.6C595.651 128.24 594.419 128.856 589.403 128.944V130ZM655.718 130H686.87V128.856C679.038 128.592 676.398 126.656 676.398 123.048V70.336H679.83C686.518 70.336 692.15 76.76 697.606 87.848L698.838 87.76L698.31 68.664H644.366L643.838 87.76L645.07 87.848C650.614 76.32 656.246 70.336 662.758 70.336H666.19V123.048C666.19 126.656 663.55 128.592 655.718 128.856V130ZM702.903 130H723.671V128.944C719.623 128.856 718.391 128.24 718.391 125.6V100.872C720.855 96.384 724.111 93.48 727.895 93.48C733.175 93.48 735.111 96.824 735.111 103.16V125.6C735.111 128.24 733.967 128.856 729.831 128.944V130H750.687V128.944C745.495 128.856 744.351 128.24 744.351 125.6V101.312C744.351 93.216 740.479 88.992 733.527 88.992C727.631 88.992 722.351 92.512 718.391 98.76V66.904L702.111 67.432V68.488C708.271 68.664 709.151 69.984 709.151 72.976V125.6C709.151 128.24 708.007 128.856 702.903 128.944V130ZM773.798 130.704C782.598 130.704 787.614 126.128 791.134 120.408L790.166 119.704C786.558 124.368 783.302 127.184 777.758 127.184C768.518 127.184 763.942 119.88 763.942 109.672V109.496V107.472H790.958C791.662 97 785.59 88.728 773.798 88.728C763.062 88.728 753.91 97.616 753.91 110.2C753.91 122.344 762.006 130.704 773.798 130.704ZM773.182 90.4C779.782 90.4 781.982 96.208 781.102 105.888H764.03C764.646 95.768 767.902 90.4 773.182 90.4ZM2.904 230H26.84V228.856C17.952 227.624 15.752 223.928 15.752 215.304V174.384H16.192L39.336 230.088H41.36L62.656 174.56H63.096V223.048C63.096 226.832 61.688 228.592 54.208 228.856V230H82.896V228.856C75.328 228.592 73.304 226.656 73.304 223.048V175.528C73.304 172.008 75.328 169.984 82.896 169.72V168.664H62.656L44.528 216.096H44.176L24.992 168.664H2.904V169.72C10.472 169.896 13.552 174.208 13.552 179.576V215.304C13.552 223.928 11.176 227.536 2.904 228.856V230ZM108.228 230.704C119.404 230.704 128.732 222.08 128.732 209.496C128.732 197 119.844 188.728 108.228 188.728C96.9643 188.728 87.6363 197.352 87.6363 209.848C87.6363 222.432 96.4363 230.704 108.228 230.704ZM108.58 229.032C101.892 229.032 97.8443 223.4 97.8443 209.672C97.8443 195.944 101.188 190.4 107.788 190.4C114.476 190.4 118.436 195.944 118.436 209.672C118.436 223.4 115.092 229.032 108.58 229.032ZM149.962 230.616C155.77 230.616 160.786 227.36 164.57 221.024V230H179.97V229.032C174.954 228.856 173.634 227.976 173.634 225.688V189.256L158.058 189.696V190.752C163.074 190.84 164.394 192.336 164.394 194.976V218.912C162.106 223.4 159.026 226.128 155.154 226.128C149.874 226.128 148.026 222.696 148.026 216.36V189.256L132.362 189.608V190.664C137.466 190.752 138.786 192.336 138.786 194.976V218.296C138.786 226.568 143.098 230.616 149.962 230.616ZM182.489 230H203.169V228.944C199.209 228.856 197.977 228.24 197.977 225.6V200.872C200.353 196.384 203.697 193.48 207.481 193.48C212.761 193.48 214.609 196.648 214.609 202.984V225.6C214.609 228.24 213.377 228.856 209.329 228.944V230H230.097V228.944C224.993 228.856 223.849 228.24 223.849 225.6V201.312C223.849 193.216 219.977 188.992 213.025 188.992C207.129 188.992 201.761 192.512 197.801 198.76V189.256L182.489 189.872V190.928C187.505 191.016 188.737 192.688 188.737 195.328V225.6C188.737 228.24 187.505 228.856 182.489 228.944V230ZM249.578 230.88C255.122 230.88 258.994 227.8 261.81 222.08L260.754 221.376C258.466 225.512 255.914 227.272 253.362 227.272C249.754 227.272 248.258 225.248 248.258 219.968V192.512H260.754V189.784H248.258V175L239.018 178.344V189.52L230.834 191.456V192.6H239.018V219.176C239.018 227.272 242.714 230.88 249.578 230.88ZM276.206 230.528C281.662 230.528 285.798 227.448 289.142 223.576H289.494C290.022 228.328 291.87 230.352 296.798 230.352C299.878 230.352 302.166 229.296 305.246 227.36L304.894 226.48C299.79 228.592 298.206 226.744 298.206 222.432V201.928C298.206 192.864 292.926 188.992 282.982 188.992C273.038 188.992 266.614 192.776 266.614 197.968C266.614 200.872 268.638 203.16 271.718 203.16C275.15 203.16 276.998 201.048 276.998 197.968C276.998 196.208 276.118 194.624 274.622 193.216C276.206 191.632 278.934 190.664 281.926 190.664C287.118 190.664 289.054 193.832 289.054 200.432V206.768C287.03 207.736 276.734 208.264 270.222 211.872C266.526 213.896 264.942 217.328 264.942 220.76C264.942 225.688 268.374 230.528 276.206 230.528ZM281.31 226.48C276.822 226.48 274.798 223.488 274.798 219.264C274.798 213.28 277.35 210.728 289.054 208.44V221.552C287.294 224.016 284.478 226.48 281.31 226.48ZM317.496 181.688C321.016 181.688 323.304 179.224 323.304 175.704C323.304 172.184 321.016 169.896 317.496 169.896C314.064 169.896 311.776 172.36 311.776 175.968C311.776 179.488 314.064 181.688 317.496 181.688ZM306.936 230H329.024V228.944C323.568 228.856 322.6 228.24 322.6 225.6V189.256L306.936 189.872V190.928C312.04 191.016 313.36 192.688 313.36 195.328V225.6C313.36 228.24 312.04 228.856 306.936 228.944V230ZM332.192 230H352.872V228.944C348.912 228.856 347.68 228.24 347.68 225.6V200.872C350.056 196.384 353.4 193.48 357.184 193.48C362.464 193.48 364.312 196.648 364.312 202.984V225.6C364.312 228.24 363.08 228.856 359.032 228.944V230H379.8V228.944C374.696 228.856 373.552 228.24 373.552 225.6V201.312C373.552 193.216 369.68 188.992 362.728 188.992C356.832 188.992 351.464 192.512 347.504 198.76V189.256L332.192 189.872V190.928C337.208 191.016 338.44 192.688 338.44 195.328V225.6C338.44 228.24 337.208 228.856 332.192 228.944V230ZM383.617 230.704H384.585L387.489 227.536C390.129 229.296 395.849 230.704 399.105 230.704C408.697 230.704 413.977 224.544 413.977 217.152C413.977 210.288 409.665 207.12 400.689 204.656C393.913 202.896 390.393 200.96 390.393 197.176C390.393 193.128 393.473 190.4 397.521 190.4C402.889 190.4 405.441 193.568 410.545 201.84H411.777V188.728H410.809L408.609 191.456C406.233 190.048 402.537 188.728 398.665 188.728C389.601 188.728 383.793 194.096 383.793 201.664C383.793 208.176 387.577 210.992 396.553 213.544C405.265 216.008 407.729 218.208 407.729 222.256C407.729 225.688 405.089 229.032 400.161 229.032C393.825 229.032 390.481 225.864 384.849 216.096H383.617V230.704ZM474.831 221.64C476.591 226.568 475.359 228.416 466.999 228.856V230H495.863V228.856C489.087 227.888 487.767 226.392 485.567 220.408L465.855 166.904H462.159L443.415 214.336C439.719 223.84 436.551 227.272 430.743 228.856V230H451.335V228.856C443.327 227.536 441.831 224.544 445.791 214.16L448.783 206.504H469.551L474.831 221.64ZM449.399 204.744L459.431 178.784H459.783L468.935 204.744H449.399ZM495.559 230H516.239V228.944C512.279 228.856 511.047 228.24 511.047 225.6V200.872C513.423 196.384 516.767 193.48 520.551 193.48C525.831 193.48 527.679 196.648 527.679 202.984V225.6C527.679 228.24 526.447 228.856 522.399 228.944V230H543.167V228.944C538.063 228.856 536.919 228.24 536.919 225.6V201.312C536.919 193.216 533.047 188.992 526.095 188.992C520.199 188.992 514.831 192.512 510.871 198.76V189.256L495.559 189.872V190.928C500.575 191.016 501.807 192.688 501.807 195.328V225.6C501.807 228.24 500.575 228.856 495.559 228.944V230ZM563.881 230.704C568.985 230.704 572.945 228.504 575.849 225.512V230.352L591.249 230V229.12C586.233 229.032 584.913 227.712 584.913 225.512V166.904L568.633 167.432V168.488C574.793 168.664 575.673 169.984 575.673 172.976V190.84C573.297 189.608 570.921 188.728 566.697 188.728C554.641 188.728 546.457 198.232 546.457 210.288C546.457 221.816 552.969 230.704 563.881 230.704ZM568.193 227.008C560.537 227.008 556.489 219.528 556.489 209.848C556.489 198.144 560.537 190.4 567.225 190.4C571.273 190.4 573.737 192.16 575.673 194.888V223.664C573.825 225.688 571.625 227.008 568.193 227.008ZM610.912 230H639.336C658.608 230 664.856 221.2 664.856 212.576C664.856 203.864 658.168 198.232 644.616 197.704V197.352C657.552 196.208 662.392 189.872 662.392 183.36C662.392 175.792 656.848 168.664 638.544 168.664H610.912V169.72C618.568 169.984 620.504 172.008 620.504 175.528V223.048C620.504 226.656 618.568 228.592 610.912 228.856V230ZM630.8 196.824V170.336H638.28C649.104 170.336 651.656 176.144 651.656 183.624C651.656 191.896 648.488 196.824 638.632 196.824H630.8ZM630.8 228.328V198.496H638.896C649.808 198.496 653.856 204.744 653.856 212.752C653.856 223.224 650.952 228.328 639.688 228.328H630.8ZM691.298 230.704C700.098 230.704 705.114 226.128 708.634 220.408L707.666 219.704C704.058 224.368 700.802 227.184 695.258 227.184C686.018 227.184 681.442 219.88 681.442 209.672V209.496V207.472H708.458C709.162 197 703.09 188.728 691.298 188.728C680.562 188.728 671.41 197.616 671.41 210.2C671.41 222.344 679.506 230.704 691.298 230.704ZM690.682 190.4C697.282 190.4 699.482 196.208 698.602 205.888H681.53C682.146 195.768 685.402 190.4 690.682 190.4ZM732.527 230.968L731.999 232.2C727.687 242.848 724.343 245.312 720.823 245.752C721.967 244.784 722.759 243.2 722.759 241.352C722.759 238.36 720.559 236.072 717.831 236.072C714.487 236.072 712.815 238.712 712.815 241.44C712.815 244.872 715.455 247.688 719.679 247.688C724.695 247.688 728.919 244.52 733.583 233.256L748.015 198.056C750.039 193.392 752.767 190.928 755.847 190.488V189.432H739.919V190.488C746.255 191.368 747.487 193.48 744.759 200.52L736.927 220.584L726.543 196.032C725.135 192.776 725.751 190.928 731.031 190.488V189.432H709.207V190.488C713.519 191.016 715.015 192.512 717.127 197.088L732.527 230.968ZM776.392 230.704C787.568 230.704 796.896 222.08 796.896 209.496C796.896 197 788.008 188.728 776.392 188.728C765.128 188.728 755.8 197.352 755.8 209.848C755.8 222.432 764.6 230.704 776.392 230.704ZM776.744 229.032C770.056 229.032 766.008 223.4 766.008 209.672C766.008 195.944 769.352 190.4 775.952 190.4C782.64 190.4 786.6 195.944 786.6 209.672C786.6 223.4 783.256 229.032 776.744 229.032ZM801.582 230H822.262V228.944C818.302 228.856 817.07 228.24 817.07 225.6V200.872C819.446 196.384 822.79 193.48 826.574 193.48C831.854 193.48 833.702 196.648 833.702 202.984V225.6C833.702 228.24 832.47 228.856 828.422 228.944V230H849.19V228.944C844.086 228.856 842.942 228.24 842.942 225.6V201.312C842.942 193.216 839.07 188.992 832.118 188.992C826.222 188.992 820.854 192.512 816.894 198.76V189.256L801.582 189.872V190.928C806.598 191.016 807.83 192.688 807.83 195.328V225.6C807.83 228.24 806.598 228.856 801.582 228.944V230ZM869.904 230.704C875.008 230.704 878.968 228.504 881.872 225.512V230.352L897.272 230V229.12C892.256 229.032 890.936 227.712 890.936 225.512V166.904L874.656 167.432V168.488C880.816 168.664 881.696 169.984 881.696 172.976V190.84C879.32 189.608 876.944 188.728 872.72 188.728C860.664 188.728 852.48 198.232 852.48 210.288C852.48 221.816 858.992 230.704 869.904 230.704ZM874.216 227.008C866.56 227.008 862.512 219.528 862.512 209.848C862.512 198.144 866.56 190.4 873.248 190.4C877.296 190.4 879.76 192.16 881.696 194.888V223.664C879.848 225.688 877.648 227.008 874.216 227.008ZM909.233 212.928H910.641C911.873 195.944 915.569 180.984 915.569 173.328C915.569 168.664 913.457 166.2 909.937 166.2C906.329 166.2 904.393 168.664 904.393 173.328C904.393 180.984 908.089 195.944 909.233 212.928ZM909.937 231.408C913.281 231.408 915.921 228.768 915.921 225.512C915.921 222.344 913.281 219.704 909.937 219.704C906.593 219.704 903.953 222.344 903.953 225.6C903.953 228.768 906.505 231.408 909.937 231.408Z" fill="white"/>
<path d="M3.204 297.556C3.204 297.796 3.36 297.994 3.672 298.15C3.996 298.294 4.386 298.426 4.842 298.546C5.298 298.654 5.754 298.798 6.21 298.978C6.666 299.146 7.05 299.434 7.362 299.842C7.686 300.25 7.848 300.76 7.848 301.372C7.848 302.296 7.5 303.01 6.804 303.514C6.12 304.006 5.262 304.252 4.23 304.252C2.382 304.252 1.122 303.538 0.45 302.11L2.466 300.976C2.73 301.756 3.318 302.146 4.23 302.146C5.058 302.146 5.472 301.888 5.472 301.372C5.472 301.132 5.31 300.94 4.986 300.796C4.674 300.64 4.29 300.502 3.834 300.382C3.378 300.262 2.922 300.112 2.466 299.932C2.01 299.752 1.62 299.47 1.296 299.086C0.984 298.69 0.828 298.198 0.828 297.61C0.828 296.722 1.152 296.026 1.8 295.522C2.46 295.006 3.276 294.748 4.248 294.748C4.98 294.748 5.646 294.916 6.246 295.252C6.846 295.576 7.32 296.044 7.668 296.656L5.688 297.736C5.4 297.124 4.92 296.818 4.248 296.818C3.948 296.818 3.696 296.884 3.492 297.016C3.3 297.148 3.204 297.328 3.204 297.556ZM13.5023 304.252C12.1463 304.252 11.0123 303.796 10.1003 302.884C9.20025 301.972 8.75025 300.844 8.75025 299.5C8.75025 298.156 9.20025 297.028 10.1003 296.116C11.0123 295.204 12.1463 294.748 13.5023 294.748C14.3783 294.748 15.1763 294.958 15.8963 295.378C16.6163 295.798 17.1623 296.362 17.5343 297.07L15.5363 298.24C15.3563 297.868 15.0803 297.574 14.7083 297.358C14.3483 297.142 13.9403 297.034 13.4843 297.034C12.7883 297.034 12.2123 297.268 11.7563 297.736C11.3003 298.192 11.0723 298.78 11.0723 299.5C11.0723 300.208 11.3003 300.796 11.7563 301.264C12.2123 301.72 12.7883 301.948 13.4843 301.948C13.9523 301.948 14.3663 301.846 14.7263 301.642C15.0983 301.426 15.3743 301.132 15.5543 300.76L17.5703 301.912C17.1743 302.62 16.6163 303.19 15.8963 303.622C15.1763 304.042 14.3783 304.252 13.5023 304.252ZM21.1906 296.548C21.4066 295.972 21.7606 295.54 22.2526 295.252C22.7566 294.964 23.3146 294.82 23.9266 294.82V297.412C23.2186 297.328 22.5826 297.472 22.0186 297.844C21.4666 298.216 21.1906 298.834 21.1906 299.698V304H18.8686V295H21.1906V296.548ZM32.6187 302.884C31.6947 303.796 30.5667 304.252 29.2347 304.252C27.9027 304.252 26.7747 303.796 25.8507 302.884C24.9387 301.96 24.4827 300.832 24.4827 299.5C24.4827 298.168 24.9387 297.046 25.8507 296.134C26.7747 295.21 27.9027 294.748 29.2347 294.748C30.5667 294.748 31.6947 295.21 32.6187 296.134C33.5427 297.046 34.0047 298.168 34.0047 299.5C34.0047 300.832 33.5427 301.96 32.6187 302.884ZM27.4887 301.282C27.9567 301.75 28.5387 301.984 29.2347 301.984C29.9307 301.984 30.5127 301.75 30.9807 301.282C31.4487 300.814 31.6827 300.22 31.6827 299.5C31.6827 298.78 31.4487 298.186 30.9807 297.718C30.5127 297.25 29.9307 297.016 29.2347 297.016C28.5387 297.016 27.9567 297.25 27.4887 297.718C27.0327 298.186 26.8047 298.78 26.8047 299.5C26.8047 300.22 27.0327 300.814 27.4887 301.282ZM35.6382 304V290.86H37.9602V304H35.6382ZM40.0854 304V290.86H42.4074V304H40.0854ZM55.8547 291.4H58.1767V304H55.8547V302.938C55.1707 303.814 54.1987 304.252 52.9387 304.252C51.7267 304.252 50.6887 303.796 49.8247 302.884C48.9727 301.96 48.5467 300.832 48.5467 299.5C48.5467 298.168 48.9727 297.046 49.8247 296.134C50.6887 295.21 51.7267 294.748 52.9387 294.748C54.1987 294.748 55.1707 295.186 55.8547 296.062V291.4ZM51.5707 301.336C52.0507 301.804 52.6507 302.038 53.3707 302.038C54.0907 302.038 54.6847 301.804 55.1527 301.336C55.6207 300.856 55.8547 300.244 55.8547 299.5C55.8547 298.756 55.6207 298.15 55.1527 297.682C54.6847 297.202 54.0907 296.962 53.3707 296.962C52.6507 296.962 52.0507 297.202 51.5707 297.682C51.1027 298.15 50.8687 298.756 50.8687 299.5C50.8687 300.244 51.1027 300.856 51.5707 301.336ZM67.9683 302.884C67.0443 303.796 65.9163 304.252 64.5843 304.252C63.2523 304.252 62.1243 303.796 61.2003 302.884C60.2883 301.96 59.8323 300.832 59.8323 299.5C59.8323 298.168 60.2883 297.046 61.2003 296.134C62.1243 295.21 63.2523 294.748 64.5843 294.748C65.9163 294.748 67.0443 295.21 67.9683 296.134C68.8923 297.046 69.3543 298.168 69.3543 299.5C69.3543 300.832 68.8923 301.96 67.9683 302.884ZM62.8383 301.282C63.3063 301.75 63.8883 301.984 64.5843 301.984C65.2803 301.984 65.8623 301.75 66.3303 301.282C66.7983 300.814 67.0323 300.22 67.0323 299.5C67.0323 298.78 66.7983 298.186 66.3303 297.718C65.8623 297.25 65.2803 297.016 64.5843 297.016C63.8883 297.016 63.3063 297.25 62.8383 297.718C62.3823 298.186 62.1543 298.78 62.1543 299.5C62.1543 300.22 62.3823 300.814 62.8383 301.282ZM80.7702 295H83.2362L80.3742 304H78.1602L76.5042 298.546L74.8482 304H72.6342L69.7722 295H72.2382L73.7682 300.526L75.4062 295H77.6022L79.2402 300.544L80.7702 295ZM89.4918 294.748C90.4758 294.748 91.2858 295.078 91.9218 295.738C92.5698 296.398 92.8938 297.31 92.8938 298.474V304H90.5718V298.762C90.5718 298.162 90.4098 297.706 90.0858 297.394C89.7618 297.07 89.3298 296.908 88.7898 296.908C88.1898 296.908 87.7098 297.094 87.3498 297.466C86.9898 297.838 86.8098 298.396 86.8098 299.14V304H84.4878V295H86.8098V296.008C87.3738 295.168 88.2678 294.748 89.4918 294.748Z" fill="white"/>
<path d="M126 302L124.59 300.59L119 306.17V286H117V306.17L111.42 300.58L110 302L118 310L126 302Z" fill="white"/>
</svg>
